PathFileType	4	(X/Y/Z)	/Users/itak/Documents/Research/Walk-IL/dataset/trc/00314_00010.trc
DataRate	CameraRate	NumFrames	NumMarkers	Units	OrigDataRate	OrigDataStartFrame	OrigNumFrames
100.000000	100.000000	4	55	mm	100.000000	67	543
Frame#	Time	RPSI			LPSI			L3			STRN			T10			C7			CLAV			RBAK			LBAK			LSHO			LUPA			LAEL			LAOL			LWTS			LWPS			LFRA			LIFD			LHPS			LHTS			RSHO			RUPA			RAEL			RAOL			RWTS			RWPS			RFRA			RIFD			RHPS			RBHD			LFHD			RFHD			LBHD			LHIP			RHIP			RASI			LASI			LKNE			LTHI			LANK			LTIP			LTOE			LMT1			LMT5			LHEE			RKNE			RTHI			RANK			RTIP			RTOE			RMT1			RMT5			RHEE			RHTS			*53			*54			
		X1	Y1	Z1	X2	Y2	Z2	X3	Y3	Z3	X4	Y4	Z4	X5	Y5	Z5	X6	Y6	Z6	X7	Y7	Z7	X8	Y8	Z8	X9	Y9	Z9	X10	Y10	Z10	X11	Y11	Z11	X12	Y12	Z12	X13	Y13	Z13	X14	Y14	Z14	X15	Y15	Z15	X16	Y16	Z16	X17	Y17	Z17	X18	Y18	Z18	X19	Y19	Z19	X20	Y20	Z20	X21	Y21	Z21	X22	Y22	Z22	X23	Y23	Z23	X24	Y24	Z24	X25	Y25	Z25	X26	Y26	Z26	X27	Y27	Z27	X28	Y28	Z28	X29	Y29	Z29	X30	Y30	Z30	X31	Y31	Z31	X32	Y32	Z32	X33	Y33	Z33	X34	Y34	Z34	X35	Y35	Z35	X36	Y36	Z36	X37	Y37	Z37	X38	Y38	Z38	X39	Y39	Z39	X40	Y40	Z40	X41	Y41	Z41	X42	Y42	Z42	X43	Y43	Z43	X44	Y44	Z44	X45	Y45	Z45	X46	Y46	Z46	X47	Y47	Z47	X48	Y48	Z48	X49	Y49	Z49	X50	Y50	Z50	X51	Y51	Z51	X52	Y52	Z52	X53	Y53	Z53	X54	Y54	Z54	X55	Y55	Z55	

68	0.67	-1186.392822265625	1008.16845703125	-667.2457885742188	-1179.461181640625	997.715087890625	-841.527587890625	-1162.70849609375	1071.614868164062	-757.4458618164062	-908.976318359375	1248.044921875	-765.633544921875	-1175.543579101562	1185.762939453125	-761.6958618164062	-1129.481567382812	1430.27783203125	-786.0155029296875	-970.030517578125	1350.21484375	-774.1004028320312	-1182.193115234375	1295.978759765625	-704.576904296875	-1143.048950195312	1389.597290039062	-888.8150024414062	-1052.796508789062	1396.416748046875	-940.8108520507812	-1078.350219726562	1276.848266601562	-1011.452453613281	-1069.762329101562	1072.27197265625	-1020.4912109375	-1129.234375	1060.45263671875	-958.265380859375	-988.7506713867188	850.9739990234375	-962.93505859375	-1022.12060546875	837.004638671875	-1027.115356445312	-1053.893676757812	967.5916137695312	-1026.221313476562	-989.22998046875	663.9393920898438	-961.474609375	-1018.398559570312	748.5966796875	-1022.168212890625	-967.4960327148438	750.4759521484375	-979.7990112304688	-1065.013916015625	1413.936767578125	-625.5239868164062	-1072.042846679688	1356.72314453125	-557.3245849609375	-1070.077392578125	1090.978271484375	-499.20361328125	-1107.629638671875	1080.593627929688	-586.3167114257812	-964.3375244140625	871.03662109375	-555.4649047851562	-1000.739135742188	865.3745727539062	-479.484130859375	-1042.363525390625	1024.787353515625	-487.598876953125	-952.0618286132812	685.70068359375	-556.4212036132812	-972.9849243164062	755.0426635742188	-482.6935729980469	-1115.578735351562	1591.502563476562	-728.1764526367188	-925.1339721679688	1632.74462890625	-813.5218505859375	-943.985107421875	1631.115600585938	-722.2716064453125	-1085.455078125	1584.05615234375	-870.5811157226562	-1109.56201171875	947.1830444335938	-934.4459228515625	-1087.7060546875	958.6480712890625	-560.8681640625	-967.7875366210938	959.9016723632812	-629.2516479492188	-973.27099609375	953.2428588867188	-880.4320678710938	-1047.0390625	481.3096008300781	-894.0125122070312	-1050.517456054688	623.07080078125	-916.8681640625	-1171.973266601562	47.72840118408203	-861.6184692382812	-1114.051635742188	258.8331909179688	-888.0610961914062	-962.2582397460938	38.21049118041992	-810.40771484375	-1031.323608398438	30.98964500427246	-767.3118286132812	-1050.66455078125	42.12093353271484	-879.0563354492188	-1214.902709960938	45.87030792236328	-799.2587280273438	-1054.548950195312	482.4983520507812	-580.7747192382812	-1026.919067382812	745.5240478515625	-557.7569580078125	-1155.305419921875	47.58154296875	-592.3299560546875	-1055.326416015625	358.3213806152344	-590.788818359375	-963.3663330078125	43.99626922607422	-646.769775390625	-1021.859741210938	39.13938522338867	-685.8190307617188	-1050.911865234375	37.33284378051758	-571.520263671875	-1209.585815429688	41.0340690612793	-638.8571166992188	-928.7442016601562	756.539794921875	-539.6964111328125	nan	nan	nan	nan	nan	nan	
69	0.68	-1186.19189453125	1008.234497070312	-667.2377319335938	-1179.411743164062	997.7594604492188	-841.5478515625	-1162.538208007812	1071.663818359375	-757.4854125976562	-908.7922973632812	1247.955688476562	-765.916748046875	-1175.389526367188	1185.8037109375	-761.7840576171875	-1129.138671875	1430.311401367188	-786.2173461914062	-969.780029296875	1350.189453125	-774.3494873046875	-1181.892456054688	1296.022583007812	-704.7486572265625	-1142.820922851562	1389.598266601562	-888.9932861328125	-1052.590087890625	1396.354614257812	-941.0459594726562	-1078.221923828125	1276.755126953125	-1011.59765625	-1069.7802734375	1072.18603515625	-1020.512084960938	-1129.199340820312	1060.385375976562	-958.2142944335938	-989.070068359375	850.7327880859375	-962.9661865234375	-1022.223266601562	836.8995971679688	-1027.090576171875	-1053.992553710938	967.4887084960938	-1026.224609375	-989.1975708007812	663.8773803710938	-961.4129638671875	-1018.503234863281	748.4772338867188	-1022.087829589844	-967.4918823242188	750.4727172851562	-979.8386840820312	-1064.679931640625	1413.934936523438	-625.7572021484375	-1071.652954101562	1356.744018554688	-557.5477294921875	-1069.732666015625	1091.007202148438	-499.3073425292969	-1107.29541015625	1080.585205078125	-586.3480834960938	-963.7755737304688	871.2113647460938	-555.7628173828125	-1000.13232421875	865.4713745117188	-479.7582702636719	-1041.9794921875	1024.845703125	-487.7566223144531	-951.2471313476562	685.9243774414062	-556.853759765625	-972.1069946289062	755.1439819335938	-483.0493469238281	-1115.178344726562	1591.603149414062	-728.3987426757812	-924.671630859375	1632.643310546875	-813.736328125	-943.5713500976562	1631.076538085938	-722.5497436523438	-1085.028930664062	1584.072143554688	-870.7913818359375	-1109.58740234375	947.2283935546875	-934.5068969726562	-1087.525268554688	958.6461791992188	-560.9301147460938	-967.5880737304688	959.8622436523438	-629.3154296875	-973.3013305664062	953.1270141601562	-880.5758666992188	-1047.133666992188	481.3000793457031	-894.0385131835938	-1050.584716796875	623.0619506835938	-916.8925170898438	-1171.977416992188	47.71256256103516	-861.6265869140625	-1114.11328125	258.8309936523438	-888.0725708007812	-962.2755126953125	38.23610687255859	-810.4055786132812	-1031.32568359375	30.98403930664062	-767.3115844726562	-1050.668701171875	42.12288284301758	-879.0569458007812	-1214.904418945312	45.84201812744141	-799.262939453125	-1054.559692382812	482.4981384277344	-580.804931640625	-1026.782104492188	745.46044921875	-557.8773193359375	-1155.306640625	47.58315658569336	-592.3245849609375	-1055.342529296875	358.3352355957031	-590.8057250976562	-963.3701171875	44.00193023681641	-646.7671508789062	-1021.873168945312	39.14662933349609	-685.82373046875	-1050.91162109375	37.33722305297852	-571.5248413085938	-1209.589965820312	41.02979278564453	-638.8584594726562	-927.9666748046875	756.8109741210938	-540.1103515625	nan	nan	nan	nan	nan	nan	
70	0.6900000000000001	-1185.975830078125	1008.301452636719	-667.2332153320312	-1179.3388671875	997.8004150390625	-841.568115234375	-1162.375366210938	1071.712158203125	-757.5292358398438	-908.6015625	1247.8837890625	-766.18115234375	-1175.206420898438	1185.84033203125	-761.8677368164062	-1128.79638671875	1430.34375	-786.4122924804688	-969.5182495117188	1350.16748046875	-774.6011962890625	-1181.580810546875	1296.063720703125	-704.9168090820312	-1142.593383789062	1389.600341796875	-889.1658325195312	-1052.3798828125	1396.296020507812	-941.273681640625	-1078.105102539062	1276.663330078125	-1011.744812011719	-1069.783935546875	1072.111572265625	-1020.535522460938	-1129.152221679688	1060.314575195312	-958.1725463867188	-989.2937622070312	850.5325317382812	-962.9947509765625	-1022.311401367188	836.7987670898438	-1027.072509765625	-1054.0791015625	967.3970947265625	-1026.231079101562	-989.111572265625	663.82666015625	-961.35205078125	-1018.595153808594	748.3623046875	-1022.017517089844	-967.4716186523438	750.4747924804688	-979.8734741210938	-1064.330322265625	1413.933959960938	-625.9884033203125	-1071.261596679688	1356.760620117188	-557.7670288085938	-1069.368774414062	1091.035766601562	-499.4051208496094	-1106.944580078125	1080.57275390625	-586.3713989257812	-963.1685180664062	871.4075317382812	-556.0465087890625	-999.4883422851562	865.5657958984375	-480.0147094726562	-1041.5966796875	1024.900634765625	-487.9122619628906	-950.4002685546875	686.16796875	-557.2543334960938	-971.2072143554688	755.2459106445312	-483.379150390625	-1114.777221679688	1591.715942382812	-728.5918579101562	-924.2094116210938	1632.541137695312	-813.9505615234375	-943.1312255859375	1631.034057617188	-722.83251953125	-1084.60400390625	1584.090698242188	-870.99755859375	-1109.6064453125	947.2697143554688	-934.5697021484375	-1087.335571289062	958.6438598632812	-560.99658203125	-967.402587890625	959.8131713867188	-629.379638671875	-973.284423828125	953.0161743164062	-880.7211303710938	-1047.214233398438	481.2919311523438	-894.06494140625	-1050.627075195312	623.0479125976562	-916.9187622070312	-1171.981689453125	47.69860458374023	-861.63330078125	-1114.155029296875	258.822998046875	-888.084716796875	-962.2909545898438	38.25943374633789	-810.4031982421875	-1031.329345703125	30.9786548614502	-767.31005859375	-1050.67333984375	42.12529754638672	-879.0575561523438	-1214.90478515625	45.81387710571289	-799.267822265625	-1054.571533203125	482.497802734375	-580.838134765625	-1026.675659179688	745.4267578125	-557.9747924804688	-1155.30859375	47.58509063720703	-592.3203125	-1055.36328125	358.3465576171875	-590.8229370117188	-963.3762817382812	44.010986328125	-646.7648315429688	-1021.885559082031	39.15385437011719	-685.8279418945312	-1050.911376953125	37.34093856811523	-571.5297241210938	-1209.59375	41.02554321289062	-638.8598022460938	-927.1524658203125	757.0963745117188	-540.498779296875	nan	nan	nan	nan	nan	nan	
71	0.7000000000000001	-1185.749389648438	1008.369079589844	-667.234619140625	-1179.2421875	997.837890625	-841.5888671875	-1162.22119140625	1071.759643554688	-757.5770263671875	-908.4070434570312	1247.825561523438	-766.4273681640625	-1174.98681640625	1185.871337890625	-761.9452514648438	-1128.45556640625	1430.37353515625	-786.5978393554688	-969.2549438476562	1350.138916015625	-774.8504028320312	-1181.263061523438	1296.103271484375	-705.0755615234375	-1142.374389648438	1389.601806640625	-889.3343505859375	-1052.170654296875	1396.23828125	-941.4966430664062	-1078.005737304688	1276.570922851562	-1011.891967773438	-1069.773681640625	1072.04443359375	-1020.564147949219	-1129.093017578125	1060.239379882812	-958.1429443359375	-989.4301147460938	850.3659057617188	-963.0201416015625	-1022.380920410156	836.6990356445312	-1027.061889648438	-1054.150634765625	967.3145751953125	-1026.242065429688	-988.9892578125	663.7837524414062	-961.292724609375	-1018.673583984375	748.25244140625	-1021.957214355469	-967.4364624023438	750.4688110351562	-979.903564453125	-1063.958984375	1413.93505859375	-626.216552734375	-1070.865600585938	1356.774658203125	-557.9835205078125	-1068.984130859375	1091.0654296875	-499.4989013671875	-1106.58349609375	1080.558471679688	-586.3915405273438	-962.537109375	871.618408203125	-556.3126220703125	-998.7952880859375	865.658203125	-480.2507934570312	-1041.204711914062	1024.951782226562	-488.062744140625	-949.502685546875	686.4347534179688	-557.6232299804688	-970.2957763671875	755.356689453125	-483.6802368164062	-1114.376953125	1591.833374023438	-728.7659301757812	-923.7553100585938	1632.436767578125	-814.1644897460938	-942.6613159179688	1630.984252929688	-723.116455078125	-1084.183715820312	1584.112182617188	-871.201904296875	-1109.614379882812	947.3046264648438	-934.6331176757812	-1087.13623046875	958.6431884765625	-561.0662841796875	-967.2294921875	959.7559814453125	-629.4501953125	-973.2138671875	952.9153442382812	-880.8656005859375	-1047.280151367188	481.2842712402344	-894.0919799804688	-1050.643920898438	623.0291137695312	-916.9473876953125	-1171.985961914062	47.68624877929688	-861.6388549804688	-1114.180541992188	258.8099365234375	-888.0970458984375	-962.3052368164062	38.28176116943359	-810.4009399414062	-1031.335205078125	30.97333145141602	-767.3078002929688	-1050.67822265625	42.12786102294922	-879.0582275390625	-1214.90576171875	45.78728485107422	-799.2730712890625	-1054.585327148438	482.4971923828125	-580.8765869140625	-1026.5849609375	745.4288330078125	-558.055908203125	-1155.311401367188	47.58683013916016	-592.317626953125	-1055.388061523438	358.3531799316406	-590.8403930664062	-963.3855590820312	44.02337265014648	-646.7636108398438	-1021.896240234375	39.16015243530273	-685.8314208984375	-1050.911376953125	37.34385681152344	-571.5347290039062	-1209.60546875	41.02426147460938	-638.8629150390625	-926.3074951171875	757.3895874023438	-540.8502197265625	nan	nan	nan	nan	nan	nan	
